<svg xmlns="http://www.w3.org/2000/svg" viewBox="0 0 200 200">
  <!-- Background -->
  <rect width="200" height="200" fill="none" />
  
  <!-- Coordinate system -->
  <line x1="40" y1="40" x2="40" y2="160" stroke="#808080" stroke-width="2" />
  <line x1="40" y1="160" x2="180" y2="160" stroke="#808080" stroke-width="2" />
  
  <!-- Control limits -->
  <line x1="40" y1="60" x2="180" y2="60" stroke="#ff7f0e" stroke-width="1.5" stroke-dasharray="5,3" />
  <line x1="40" y1="100" x2="180" y2="100" stroke="#ff0000" stroke-width="1.5" stroke-dasharray="5,3" />
  <line x1="40" y1="140" x2="180" y2="140" stroke="#ff7f0e" stroke-width="1.5" stroke-dasharray="5,3" />
  
  <!-- Data points and connecting line-->
  <polyline points="40,90 60,95 80,120 100,70 120,140 140,95 160,110 180,80" fill="none" stroke="#4a90e2" stroke-width="3" />
  
  <!-- Data points -->
  <circle cx="40" cy="90" r="4" fill="#4a90e2" />
  <circle cx="60" cy="95" r="4" fill="#4a90e2" />
  <circle cx="80" cy="120" r="4" fill="#4a90e2" />
  <circle cx="100" cy="70" r="4" fill="#4a90e2" />
  <circle cx="120" cy="140" r="4" fill="#4a90e2" />
  <circle cx="140" cy="95" r="4" fill="#4a90e2" />
  <circle cx="160" cy="110" r="4" fill="#4a90e2" />
  <circle cx="180" cy="80" r="4" fill="#4a90e2" />
  
  <!-- Special cause highlight -->
  <circle cx="100" cy="70" r="8" fill="none" stroke="#dc3545" stroke-width="2" />
  <circle cx="120" cy="140" r="8" fill="none" stroke="#dc3545" stroke-width="2" />
</svg> 