<svg width="32" height="32" viewBox="0 0 32 32" fill="none" xmlns="http://www.w3.org/2000/svg">
  <defs>
    <radialGradient id="glass" cx="50%" cy="35%" r="75%">
      <stop offset="0%" stop-color="#ffffff" stop-opacity="0.8"/>
      <stop offset="80%" stop-color="#e3f0fa" stop-opacity="0.7"/>
    </radialGradient>
    <linearGradient id="aero" x1="0" y1="0" x2="0" y2="1">
      <stop offset="0%" stop-color="#eaf6ff" />
      <stop offset="150%" stop-color="#398cd9" />
    </linearGradient>
    <filter id="drop" x="-20%" y="-20%" width="140%" height="140%">
      <feDropShadow dx="0" dy="2" stdDeviation="2" flood-color="#2d93ea" flood-opacity="0.22"/>
    </filter>
  </defs>
  <g filter="url(#drop)">
    <path d="M16 5L5 14.5V27a1 1 0 0 0 1 1h6.5V20a1.5 1.5 0 0 1 3 0v8H26a1 1 0 0 0 1-1V14.5L16 5z"
      fill="url(#aero)"/>
    <path d="M16 5L5 14.5V27a1 1 0 0 0 1 1h6.5V20a1.5 1.5 0 0 1 3 0v8H26a1 1 0 0 0 1-1V14.5L16 5z"
      fill="url(#glass)" />
    <path d="M16 5L5 14.5V27a1 1 0 0 0 1 1h6.5V20a1.5 1.5 0 0 1 3 0v8H26a1 1 0 0 0 1-1V14.5L16 5z"
      fill="none" stroke="#3577bb" stroke-width="1.4" />
  </g>
  <ellipse cx="16" cy="11" rx="6" ry="3" fill="#fff" fill-opacity="0.15"/>
</svg>
