
<svg xmlns="http://www.w3.org/2000/svg" width="32" height="32" viewBox="0 0 16 16" fill="none">
  <defs>
    <!-- Reuse your gradients -->
    <radialGradient id="glass" cx="50%" cy="35%" r="75%">
      <stop offset="0%" stop-color="#398cd9" stop-opacity="0.8"/>
      <stop offset="80%" stop-color="#398cd9" stop-opacity="0.7"/>
    </radialGradient>
    <linearGradient id="aero" x1="0" y1="0" x2="0" y2="1">
      <stop offset="0%" stop-color="#398cd9" />
      <stop offset="150%" stop-color="#398cd9" />
    </linearGradient>
    <filter id="drop" x="-20%" y="-20%" width="140%" height="140%">
      <feDropShadow dx="0" dy="2" stdDeviation="2"
        flood-color="#2d93ea" flood-opacity="0.22"/>
    </filter>
  </defs>

  <g filter="url(#drop)">
    <path d="M8.707 1.5a1 1 0 0 0-1.414 0L.646 8.146a.5.5 0 0 0 .708.708L2 8.207V13.5A1.5 1.5 0 0 0 3.5 15h9a1.5 1.5 0 0 0 1.5-1.5V8.207l.646.647a.5.5 0 0 0 .708-.708L13 5.793V2.5a.5.5 0 0 0-.5-.5h-1a.5.5 0 0 0-.5.5v1.293zM13 7.207V13.5a.5.5 0 0 1-.5.5h-9a.5.5 0 0 1-.5-.5V7.207l5-5z" fill="url(#aero)"/>
    <path d="M8.707 1.5a1 1 0 0 0-1.414 0L.646 8.146a.5.5 0 0 0 .708.708L2 8.207V13.5A1.5 1.5 0 0 0 3.5 15h9a1.5 1.5 0 0 0 1.5-1.5V8.207l.646.647a.5.5 0 0 0 .708-.708L13 5.793V2.5a.5.5 0 0 0-.5-.5h-1a.5.5 0 0 0-.5.5v1.293zM13 7.207V13.5a.5.5 0 0 1-.5.5h-9a.5.5 0 0 1-.5-.5V7.207l5-5z" fill="url(#glass)"/>
  </g>
</svg>